<mxfile host="65bd71144e">
    <diagram id="eNF-e9jVF5CvfkZKGxvT" name="Page-1">
        <mxGraphModel dx="594" dy="569" grid="1" gridSize="10" guides="1" tooltips="1" connect="1" arrows="1" fold="1" page="1" pageScale="1" pageWidth="827" pageHeight="1169" math="0" shadow="0">
            <root>
                <mxCell id="0"/>
                <mxCell id="1" parent="0"/>
                <mxCell id="2" value="" style="rounded=0;whiteSpace=wrap;html=1;" vertex="1" parent="1">
                    <mxGeometry x="40" y="40" width="490" height="320" as="geometry"/>
                </mxCell>
                <mxCell id="3" value="&amp;nbsp; &amp;nbsp;Weather API, with JS" style="rounded=0;whiteSpace=wrap;html=1;align=left;" vertex="1" parent="1">
                    <mxGeometry x="40" y="40" width="490" height="50" as="geometry"/>
                </mxCell>
                <mxCell id="4" value="" style="shape=image;verticalLabelPosition=bottom;labelBackgroundColor=#ffffff;verticalAlign=top;aspect=fixed;imageAspect=0;image=http://openweathermap.org/img/wn/04d@2x.png;" vertex="1" parent="1">
                    <mxGeometry x="40" y="90" width="100" height="100" as="geometry"/>
                </mxCell>
                <mxCell id="5" value="The current weather is: 26&lt;span style=&quot;color: rgba(0 , 0 , 0 , 0.87) ; font-family: &amp;#34;helvetica&amp;#34; , &amp;#34;arial&amp;#34; , sans-serif ; font-size: 14px&quot;&gt;Â°C&lt;/span&gt;" style="text;html=1;align=center;verticalAlign=middle;resizable=0;points=[];autosize=1;strokeColor=none;fillColor=none;" vertex="1" parent="1">
                    <mxGeometry x="60" y="190" width="170" height="20" as="geometry"/>
                </mxCell>
            </root>
        </mxGraphModel>
    </diagram>
</mxfile>